<svg xmlns="http://www.w3.org/2000/svg" viewBox="0 0 64 64" width="64" height="64">
  <!-- Фон -->
  <rect width="64" height="64" fill="#3B82C4" />

  <!-- Лучи -->
  <g stroke="#FFB300" stroke-width="4" stroke-linecap="round">
    <line x1="32" y1="3" x2="32" y2="11" />
    <line x1="32" y1="53" x2="32" y2="61" />
    <line x1="3" y1="32" x2="11" y2="32" />
    <line x1="53" y1="32" x2="61" y2="32" />
    <line x1="10" y1="10" x2="16" y2="16" />
    <line x1="48" y1="48" x2="54" y2="54" />
    <line x1="54" y1="10" x2="48" y2="16" />
    <line x1="10" y1="54" x2="16" y2="48" />
  </g>

  <!-- Тело -->
  <circle cx="32" cy="32" r="20" fill="#FFD54F" stroke="#FF8F00" stroke-width="1.5" />

  <!-- Глаза -->
  <circle cx="25" cy="27" r="3" fill="#4E342E" />
  <circle cx="39" cy="27" r="3" fill="#4E342E" />
  <circle cx="26" cy="26" r="1.2" fill="#fff" />
  <circle cx="40" cy="26" r="1.2" fill="#fff" />

  <!-- Щёчки -->
  <ellipse cx="20" cy="33" rx="4" ry="2.5" fill="#FF8A65" opacity="0.6" />
  <ellipse cx="44" cy="33" rx="4" ry="2.5" fill="#FF8A65" opacity="0.6" />

  <!-- Улыбка -->
  <path d="M24 36 Q32 44 40 36" stroke="#4E342E" stroke-width="2" fill="none" stroke-linecap="round" />
</svg>